<?xml version="1.0" encoding="utf-8"?>
<!-- Generator: Adobe Illustrator 27.1.1, SVG Export Plug-In . SVG Version: 6.00 Build 0)  -->
<svg version="1.1" id="Layer_1" xmlns="http://www.w3.org/2000/svg" xmlns:xlink="http://www.w3.org/1999/xlink" x="0px" y="0px"
	 viewBox="0 0 1026 163.17" style="enable-background:new 0 0 1026 163.17;" xml:space="preserve">
<style type="text/css">
	.st0{fill:#FBD801;}
	.st1{fill:#FFFFFF;}
</style>
<g>
	<circle class="st0" cx="319.34" cy="81.59" r="75.22"/>
	<circle cx="319.34" cy="81.59" r="65.19"/>
	<g>
		<path class="st1" d="M3.15,106.67l42.16-50.99h-41V42.96h57.72V53.9l-40.79,50.99h41.11v12.72H3.15V106.67z"/>
		<path class="st1" d="M142.35,104.88v12.72H90.52V42.96h50.88v12.72h-36.38v17.98h31.43v11.78h-31.43v19.45H142.35z"/>
		<path class="st1" d="M170.52,117.61V42.96h33.01c3.43,0,6.6,0.72,9.51,2.16c2.91,1.44,5.41,3.33,7.52,5.68
			c2.1,2.35,3.75,5.01,4.94,7.99c1.19,2.98,1.79,5.98,1.79,8.99c0,4.84-1.21,9.23-3.63,13.19c-2.42,3.96-5.7,6.82-9.83,8.57
			l17.03,28.07h-16.3l-15.24-25.02h-14.3v25.02H170.52z M185.03,79.86h18.19c1.33,0,2.58-0.32,3.73-0.95c1.16-0.63,2.15-1.49,3-2.58
			c0.84-1.09,1.51-2.37,2-3.84c0.49-1.47,0.74-3.05,0.74-4.73c0-1.75-0.28-3.36-0.84-4.84c-0.56-1.47-1.31-2.75-2.26-3.84
			c-0.95-1.09-2.03-1.93-3.26-2.52c-1.23-0.59-2.47-0.89-3.73-0.89h-17.56V79.86z"/>
	</g>
	<g>
		<path class="st1" d="M468.04,58.94h-23.86v61.92h-14.4V58.94H405.9V46.22h62.13V58.94z"/>
		<path class="st1" d="M556.87,46.22v74.64h-14.4V89.01h-33.85v31.85h-14.51V46.22h14.51v30.17h33.85V46.22H556.87z"/>
		<path class="st1" d="M641.08,108.14v12.72h-51.83V46.22h50.88v12.72h-36.38v17.98h31.43v11.78h-31.43v19.45H641.08z"/>
		<path class="st1" d="M699.53,121.39c-5.47,0-10.43-1.07-14.88-3.21c-4.45-2.14-8.27-4.98-11.46-8.52
			c-3.19-3.54-5.66-7.59-7.41-12.14c-1.75-4.56-2.63-9.22-2.63-13.98c0-4.98,0.93-9.74,2.79-14.3c1.86-4.56,4.42-8.58,7.67-12.09
			c3.26-3.5,7.13-6.29,11.62-8.36c4.48-2.07,9.36-3.1,14.61-3.1c5.4,0,10.32,1.1,14.77,3.31c4.45,2.21,8.25,5.1,11.41,8.67
			c3.15,3.57,5.61,7.64,7.36,12.2c1.75,4.56,2.63,9.18,2.63,13.88c0,4.98-0.91,9.72-2.73,14.25c-1.82,4.52-4.35,8.52-7.57,11.99
			c-3.22,3.47-7.08,6.24-11.56,8.3C709.66,120.36,704.79,121.39,699.53,121.39z M677.88,83.54c0,3.22,0.49,6.34,1.47,9.36
			c0.98,3.01,2.4,5.68,4.26,7.99c1.86,2.31,4.13,4.17,6.83,5.57c2.7,1.4,5.76,2.1,9.2,2.1c3.5,0,6.61-0.72,9.3-2.16
			c2.7-1.44,4.98-3.35,6.83-5.73c1.86-2.38,3.26-5.06,4.21-8.04c0.95-2.98,1.42-6.01,1.42-9.09c0-3.22-0.51-6.34-1.52-9.36
			c-1.02-3.01-2.45-5.68-4.31-7.99c-1.86-2.31-4.14-4.15-6.83-5.52c-2.7-1.37-5.73-2.05-9.09-2.05c-3.5,0-6.62,0.72-9.36,2.16
			c-2.73,1.44-5.01,3.33-6.83,5.68c-1.82,2.35-3.21,5.01-4.15,7.99C678.35,77.43,677.88,80.46,677.88,83.54z"/>
		<path class="st1" d="M763.98,120.86V46.22h33.01c3.43,0,6.61,0.72,9.51,2.16c2.91,1.44,5.41,3.33,7.52,5.68
			c2.1,2.35,3.75,5.01,4.94,7.99c1.19,2.98,1.79,5.98,1.79,8.99c0,4.84-1.21,9.23-3.63,13.19c-2.42,3.96-5.7,6.82-9.83,8.57
			l17.03,28.07h-16.29l-15.24-25.02h-14.3v25.02H763.98z M778.49,83.12h18.19c1.33,0,2.58-0.32,3.73-0.95s2.16-1.49,3-2.58
			c0.84-1.09,1.51-2.37,2-3.84c0.49-1.47,0.74-3.05,0.74-4.73c0-1.75-0.28-3.36-0.84-4.84c-0.56-1.47-1.31-2.75-2.26-3.84
			c-0.95-1.09-2.03-1.93-3.26-2.52c-1.23-0.59-2.47-0.89-3.73-0.89h-17.56V83.12z"/>
		<path class="st1" d="M902.54,108.14v12.72h-51.83V46.22h50.88v12.72h-36.38v17.98h31.43v11.78h-31.43v19.45H902.54z"/>
		<path class="st1" d="M991.59,120.86V71.45l-19.24,36.8h-7.88l-19.24-36.8v49.41h-14.51V46.22h15.56l22.08,42.47l22.29-42.47h15.45
			v74.64H991.59z"/>
	</g>
</g>
</svg>
