<svg width="137" height="26" viewBox="0 0 137 26" fill="none" xmlns="http://www.w3.org/2000/svg">
<path d="M50.7793 26C57.959 26 63.7793 20.1797 63.7793 13C63.7793 5.8203 57.959 0 50.7793 0C43.5996 0 37.7793 5.8203 37.7793 13C37.7793 20.1797 43.5996 26 50.7793 26Z" fill="#FBD801"/>
<path d="M50.7802 24.2666C57.0026 24.2666 62.0468 19.2224 62.0468 13C62.0468 6.77767 57.0026 1.73346 50.7802 1.73346C44.5579 1.73346 39.5137 6.77767 39.5137 13C39.5137 19.2224 44.5579 24.2666 50.7802 24.2666Z" fill="black"/>
<path d="M69.598 21V6.45455H74.7827C75.9143 6.45455 76.8518 6.66051 77.5952 7.07244C78.3385 7.48437 78.8949 8.04782 79.2642 8.76278C79.6335 9.47301 79.8182 10.2732 79.8182 11.1634C79.8182 12.0582 79.6312 12.8632 79.2571 13.5781C78.8878 14.2884 78.3291 14.8518 77.581 15.2685C76.8376 15.6804 75.9025 15.8864 74.7756 15.8864H71.2102V14.0256H74.5767C75.2917 14.0256 75.8717 13.9025 76.3168 13.6562C76.7618 13.4053 77.0885 13.0644 77.2969 12.6335C77.5052 12.2027 77.6094 11.7126 77.6094 11.1634C77.6094 10.6141 77.5052 10.1264 77.2969 9.70028C77.0885 9.27415 76.7595 8.94034 76.3097 8.69886C75.8646 8.45739 75.2775 8.33665 74.5483 8.33665H71.7926V21H69.598ZM82.391 21V6.45455H87.5756C88.7025 6.45455 89.6377 6.64867 90.381 7.03693C91.1291 7.42519 91.6879 7.96259 92.0572 8.64915C92.4265 9.33097 92.6112 10.1193 92.6112 11.0142C92.6112 11.9044 92.4241 12.688 92.0501 13.3651C91.6808 14.0374 91.122 14.5606 90.3739 14.9347C89.6306 15.3087 88.6954 15.4957 87.5685 15.4957H83.641V13.6065H87.3697C88.0799 13.6065 88.6576 13.5047 89.1026 13.3011C89.5524 13.0975 89.8815 12.8016 90.0898 12.4134C90.2982 12.0251 90.4023 11.5587 90.4023 11.0142C90.4023 10.465 90.2958 9.98911 90.0827 9.58665C89.8744 9.18419 89.5453 8.87642 89.0955 8.66335C88.6504 8.44555 88.0657 8.33665 87.3413 8.33665H84.5856V21H82.391ZM89.5714 14.4375L93.1651 21H90.6651L87.1424 14.4375H89.5714ZM107.917 13.7273C107.917 15.2803 107.632 16.6155 107.064 17.733C106.496 18.8456 105.717 19.7027 104.728 20.304C103.743 20.9006 102.623 21.1989 101.368 21.1989C100.109 21.1989 98.9843 20.9006 97.9947 20.304C97.0098 19.7027 96.2333 18.8433 95.6651 17.7259C95.0969 16.6084 94.8129 15.2756 94.8129 13.7273C94.8129 12.1742 95.0969 10.8414 95.6651 9.72869C96.2333 8.61127 97.0098 7.75426 97.9947 7.15767C98.9843 6.55634 100.109 6.25568 101.368 6.25568C102.623 6.25568 103.743 6.55634 104.728 7.15767C105.717 7.75426 106.496 8.61127 107.064 9.72869C107.632 10.8414 107.917 12.1742 107.917 13.7273ZM105.743 13.7273C105.743 12.5436 105.551 11.5469 105.168 10.7372C104.789 9.92282 104.268 9.30729 103.605 8.89062C102.947 8.46922 102.202 8.25852 101.368 8.25852C100.53 8.25852 99.7821 8.46922 99.1239 8.89062C98.4658 9.30729 97.945 9.92282 97.5614 10.7372C97.1826 11.5469 96.9933 12.5436 96.9933 13.7273C96.9933 14.911 97.1826 15.91 97.5614 16.7244C97.945 17.5341 98.4658 18.1496 99.1239 18.571C99.7821 18.9877 100.53 19.196 101.368 19.196C102.202 19.196 102.947 18.9877 103.605 18.571C104.268 18.1496 104.789 17.5341 105.168 16.7244C105.551 15.91 105.743 14.911 105.743 13.7273ZM123.288 13.7273C123.288 15.2803 123.004 16.6155 122.435 17.733C121.867 18.8456 121.088 19.7027 120.099 20.304C119.114 20.9006 117.994 21.1989 116.739 21.1989C115.48 21.1989 114.355 20.9006 113.366 20.304C112.381 19.7027 111.604 18.8433 111.036 17.7259C110.468 16.6084 110.184 15.2756 110.184 13.7273C110.184 12.1742 110.468 10.8414 111.036 9.72869C111.604 8.61127 112.381 7.75426 113.366 7.15767C114.355 6.55634 115.48 6.25568 116.739 6.25568C117.994 6.25568 119.114 6.55634 120.099 7.15767C121.088 7.75426 121.867 8.61127 122.435 9.72869C123.004 10.8414 123.288 12.1742 123.288 13.7273ZM121.114 13.7273C121.114 12.5436 120.923 11.5469 120.539 10.7372C120.16 9.92282 119.639 9.30729 118.977 8.89062C118.318 8.46922 117.573 8.25852 116.739 8.25852C115.901 8.25852 115.153 8.46922 114.495 8.89062C113.837 9.30729 113.316 9.92282 112.933 10.7372C112.554 11.5469 112.364 12.5436 112.364 13.7273C112.364 14.911 112.554 15.91 112.933 16.7244C113.316 17.5341 113.837 18.1496 114.495 18.571C115.153 18.9877 115.901 19.196 116.739 19.196C117.573 19.196 118.318 18.9877 118.977 18.571C119.639 18.1496 120.16 17.5341 120.539 16.7244C120.923 15.91 121.114 14.911 121.114 13.7273ZM126.024 21V6.45455H135.044V8.34375H128.218V12.7756H134.397V14.6577H128.218V21H126.024Z" fill="black"/>
<path d="M1.22159 21V19.5369L8.87074 8.34375H1.15767V6.45455H11.5554V7.91761L3.90625 19.1108H11.6193V21H1.22159ZM14.3714 21V6.45455H23.4908V8.34375H16.5661V12.7756H23.0149V14.6577H16.5661V19.1108H23.576V21H14.3714ZM26.4222 21V6.45455H31.6069C32.7338 6.45455 33.6689 6.64867 34.4123 7.03693C35.1604 7.42519 35.7191 7.96259 36.0884 8.64915C36.4577 9.33097 36.6424 10.1193 36.6424 11.0142C36.6424 11.9044 36.4554 12.688 36.0813 13.3651C35.712 14.0374 35.1533 14.5606 34.4052 14.9347C33.6618 15.3087 32.7267 15.4957 31.5998 15.4957H27.6722V13.6065H31.4009C32.1112 13.6065 32.6888 13.5047 33.1339 13.3011C33.5837 13.0975 33.9128 12.8016 34.1211 12.4134C34.3294 12.0251 34.4336 11.5587 34.4336 11.0142C34.4336 10.465 34.3271 9.98911 34.114 9.58665C33.9057 9.18419 33.5766 8.87642 33.1268 8.66335C32.6817 8.44555 32.0969 8.33665 31.3725 8.33665H28.6168V21H26.4222ZM33.6026 14.4375L37.1964 21H34.6964L31.1737 14.4375H33.6026Z" fill="black"/>
</svg>
