<svg width="124" height="26" viewBox="0 0 124 26" fill="none" xmlns="http://www.w3.org/2000/svg">
<path d="M50.7793 26C57.959 26 63.7793 20.1797 63.7793 13C63.7793 5.8203 57.959 0 50.7793 0C43.5996 0 37.7793 5.8203 37.7793 13C37.7793 20.1797 43.5996 26 50.7793 26Z" fill="#FBD801"/>
<path d="M50.7802 24.2666C57.0026 24.2666 62.0468 19.2224 62.0468 13C62.0468 6.77767 57.0026 1.73346 50.7802 1.73346C44.5579 1.73346 39.5137 6.77767 39.5137 13C39.5137 19.2224 44.5579 24.2666 50.7802 24.2666Z" fill="black"/>
<path d="M81.679 11.1847H79.4631C79.3778 10.7112 79.2192 10.2945 78.9872 9.93466C78.7552 9.57481 78.4711 9.26941 78.1349 9.01847C77.7988 8.76752 77.4223 8.57812 77.0057 8.45028C76.5938 8.32244 76.1558 8.25852 75.6918 8.25852C74.8537 8.25852 74.1032 8.46922 73.4403 8.89062C72.7822 9.31203 72.2614 9.92992 71.8778 10.7443C71.4991 11.5587 71.3097 12.553 71.3097 13.7273C71.3097 14.911 71.4991 15.91 71.8778 16.7244C72.2614 17.5388 72.7846 18.1544 73.4474 18.571C74.1103 18.9877 74.8561 19.196 75.6847 19.196C76.1439 19.196 76.5795 19.1345 76.9915 19.0114C77.4081 18.8835 77.7846 18.6965 78.1207 18.4503C78.4569 18.2041 78.741 17.9034 78.973 17.5483C79.2098 17.1884 79.3731 16.7765 79.4631 16.3125L81.679 16.3196C81.5606 17.0346 81.331 17.6927 80.9901 18.294C80.6539 18.8906 80.2206 19.4067 79.6903 19.8423C79.1648 20.2732 78.5634 20.607 77.8864 20.8438C77.2093 21.0805 76.4706 21.1989 75.6705 21.1989C74.411 21.1989 73.2888 20.9006 72.304 20.304C71.3191 19.7027 70.5426 18.8433 69.9744 17.7259C69.411 16.6084 69.1293 15.2756 69.1293 13.7273C69.1293 12.1742 69.4134 10.8414 69.9815 9.72869C70.5497 8.61127 71.3262 7.75426 72.3111 7.15767C73.2959 6.55634 74.4157 6.25568 75.6705 6.25568C76.4422 6.25568 77.1619 6.36695 77.8295 6.58949C78.5019 6.80729 79.1056 7.12926 79.6406 7.5554C80.1757 7.9768 80.6184 8.4929 80.9688 9.10369C81.3191 9.70975 81.5559 10.4034 81.679 11.1847ZM96.94 13.7273C96.94 15.2803 96.6559 16.6155 96.0877 17.733C95.5195 18.8456 94.7406 19.7027 93.7511 20.304C92.7662 20.9006 91.6464 21.1989 90.3917 21.1989C89.1322 21.1989 88.0077 20.9006 87.0181 20.304C86.0333 19.7027 85.2567 18.8433 84.6886 17.7259C84.1204 16.6084 83.8363 15.2756 83.8363 13.7273C83.8363 12.1742 84.1204 10.8414 84.6886 9.72869C85.2567 8.61127 86.0333 7.75426 87.0181 7.15767C88.0077 6.55634 89.1322 6.25568 90.3917 6.25568C91.6464 6.25568 92.7662 6.55634 93.7511 7.15767C94.7406 7.75426 95.5195 8.61127 96.0877 9.72869C96.6559 10.8414 96.94 12.1742 96.94 13.7273ZM94.7667 13.7273C94.7667 12.5436 94.5749 11.5469 94.1914 10.7372C93.8126 9.92282 93.2918 9.30729 92.6289 8.89062C91.9708 8.46922 91.225 8.25852 90.3917 8.25852C89.5536 8.25852 88.8055 8.46922 88.1474 8.89062C87.4892 9.30729 86.9684 9.92282 86.5849 10.7372C86.2061 11.5469 86.0167 12.5436 86.0167 13.7273C86.0167 14.911 86.2061 15.91 86.5849 16.7244C86.9684 17.5341 87.4892 18.1496 88.1474 18.571C88.8055 18.9877 89.5536 19.196 90.3917 19.196C91.225 19.196 91.9708 18.9877 92.6289 18.571C93.2918 18.1496 93.8126 17.5341 94.1914 16.7244C94.5749 15.91 94.7667 14.911 94.7667 13.7273ZM107.609 10.2756C107.534 9.60322 107.221 9.08239 106.672 8.71307C106.123 8.33902 105.431 8.15199 104.598 8.15199C104.001 8.15199 103.485 8.24669 103.05 8.43608C102.614 8.62074 102.276 8.87642 102.034 9.20312C101.797 9.52509 101.679 9.89205 101.679 10.304C101.679 10.6496 101.759 10.9479 101.92 11.1989C102.086 11.4498 102.302 11.6605 102.567 11.831C102.837 11.9967 103.125 12.1364 103.433 12.25C103.741 12.3589 104.037 12.4489 104.321 12.5199L105.741 12.8892C106.205 13.0028 106.681 13.1567 107.169 13.3509C107.657 13.545 108.109 13.8007 108.526 14.1179C108.942 14.4351 109.278 14.8281 109.534 15.2969C109.795 15.7656 109.925 16.3267 109.925 16.9801C109.925 17.804 109.712 18.5355 109.286 19.1747C108.864 19.8139 108.251 20.3182 107.446 20.6875C106.646 21.0568 105.678 21.2415 104.541 21.2415C103.452 21.2415 102.51 21.0687 101.714 20.723C100.919 20.3774 100.296 19.8873 99.8466 19.2528C99.3968 18.6136 99.1482 17.8561 99.1009 16.9801H101.303C101.345 17.5057 101.516 17.9437 101.814 18.294C102.117 18.6397 102.503 18.8977 102.972 19.0682C103.445 19.2339 103.964 19.3168 104.527 19.3168C105.147 19.3168 105.699 19.2197 106.182 19.0256C106.67 18.8267 107.053 18.5521 107.332 18.2017C107.612 17.8466 107.751 17.4323 107.751 16.9588C107.751 16.5279 107.628 16.1752 107.382 15.9006C107.141 15.6259 106.812 15.3987 106.395 15.2188C105.983 15.0388 105.517 14.8802 104.996 14.7429L103.277 14.2741C102.112 13.9569 101.189 13.4905 100.507 12.875C99.83 12.2595 99.4915 11.4451 99.4915 10.4318C99.4915 9.59375 99.7188 8.86222 100.173 8.23722C100.628 7.61222 101.243 7.12689 102.02 6.78125C102.796 6.43087 103.672 6.25568 104.648 6.25568C105.633 6.25568 106.501 6.4285 107.254 6.77415C108.012 7.11979 108.608 7.59564 109.044 8.2017C109.48 8.80303 109.707 9.49432 109.726 10.2756H107.609ZM111.83 8.34375V6.45455H123.087V8.34375H118.549V21H116.361V8.34375H111.83Z" fill="black"/>
<path d="M1.22159 21V19.5369L8.87074 8.34375H1.15767V6.45455H11.5554V7.91761L3.90625 19.1108H11.6193V21H1.22159ZM14.3714 21V6.45455H23.4908V8.34375H16.5661V12.7756H23.0149V14.6577H16.5661V19.1108H23.576V21H14.3714ZM26.4222 21V6.45455H31.6069C32.7338 6.45455 33.6689 6.64867 34.4123 7.03693C35.1604 7.42519 35.7191 7.96259 36.0884 8.64915C36.4577 9.33097 36.6424 10.1193 36.6424 11.0142C36.6424 11.9044 36.4554 12.688 36.0813 13.3651C35.712 14.0374 35.1533 14.5606 34.4052 14.9347C33.6618 15.3087 32.7267 15.4957 31.5998 15.4957H27.6722V13.6065H31.4009C32.1112 13.6065 32.6888 13.5047 33.1339 13.3011C33.5837 13.0975 33.9128 12.8016 34.1211 12.4134C34.3294 12.0251 34.4336 11.5587 34.4336 11.0142C34.4336 10.465 34.3271 9.98911 34.114 9.58665C33.9057 9.18419 33.5766 8.87642 33.1268 8.66335C32.6817 8.44555 32.0969 8.33665 31.3725 8.33665H28.6168V21H26.4222ZM33.6026 14.4375L37.1964 21H34.6964L31.1737 14.4375H33.6026Z" fill="black"/>
</svg>
