<svg width="210" height="26" viewBox="0 0 210 26" fill="none" xmlns="http://www.w3.org/2000/svg">
<path d="M50.7793 26C57.959 26 63.7793 20.1797 63.7793 13C63.7793 5.8203 57.959 0 50.7793 0C43.5996 0 37.7793 5.8203 37.7793 13C37.7793 20.1797 43.5996 26 50.7793 26Z" fill="#FBD801"/>
<path d="M50.7802 24.2666C57.0026 24.2666 62.0468 19.2224 62.0468 13C62.0468 6.77767 57.0026 1.73346 50.7802 1.73346C44.5579 1.73346 39.5137 6.77767 39.5137 13C39.5137 19.2224 44.5579 24.2666 50.7802 24.2666Z" fill="black"/>
<path d="M78.9517 6.45455H81.1534V16.0213C81.1534 17.0393 80.9143 17.9413 80.4361 18.7273C79.9579 19.5085 79.2855 20.1241 78.419 20.5739C77.5526 21.0189 76.5369 21.2415 75.3722 21.2415C74.2121 21.2415 73.1989 21.0189 72.3324 20.5739C71.4659 20.1241 70.7936 19.5085 70.3153 18.7273C69.8371 17.9413 69.598 17.0393 69.598 16.0213V6.45455H71.7926V15.8438C71.7926 16.5019 71.937 17.0866 72.2259 17.598C72.5194 18.1094 72.9337 18.5118 73.4688 18.8054C74.0038 19.0942 74.6383 19.2386 75.3722 19.2386C76.1108 19.2386 76.7476 19.0942 77.2827 18.8054C77.8224 18.5118 78.2344 18.1094 78.5185 17.598C78.8073 17.0866 78.9517 16.5019 78.9517 15.8438V6.45455ZM96.0842 6.45455V21H94.0671L86.6737 10.3324H86.5387V21H84.3441V6.45455H86.3754L93.7759 17.1364H93.9109V6.45455H96.0842ZM111.366 11.1847H109.151C109.065 10.7112 108.907 10.2945 108.675 9.93466C108.443 9.57481 108.159 9.26941 107.822 9.01847C107.486 8.76752 107.11 8.57812 106.693 8.45028C106.281 8.32244 105.843 8.25852 105.379 8.25852C104.541 8.25852 103.791 8.46922 103.128 8.89062C102.47 9.31203 101.949 9.92992 101.565 10.7443C101.187 11.5587 100.997 12.553 100.997 13.7273C100.997 14.911 101.187 15.91 101.565 16.7244C101.949 17.5388 102.472 18.1544 103.135 18.571C103.798 18.9877 104.544 19.196 105.372 19.196C105.831 19.196 106.267 19.1345 106.679 19.0114C107.096 18.8835 107.472 18.6965 107.808 18.4503C108.144 18.2041 108.429 17.9034 108.661 17.5483C108.897 17.1884 109.061 16.7765 109.151 16.3125L111.366 16.3196C111.248 17.0346 111.018 17.6927 110.678 18.294C110.341 18.8906 109.908 19.4067 109.378 19.8423C108.852 20.2732 108.251 20.607 107.574 20.8438C106.897 21.0805 106.158 21.1989 105.358 21.1989C104.098 21.1989 102.976 20.9006 101.991 20.304C101.007 19.7027 100.23 18.8433 99.6619 17.7259C99.0985 16.6084 98.8168 15.2756 98.8168 13.7273C98.8168 12.1742 99.1009 10.8414 99.669 9.72869C100.237 8.61127 101.014 7.75426 101.999 7.15767C102.983 6.55634 104.103 6.25568 105.358 6.25568C106.13 6.25568 106.849 6.36695 107.517 6.58949C108.189 6.80729 108.793 7.12926 109.328 7.5554C109.863 7.9768 110.306 8.4929 110.656 9.10369C111.007 9.70975 111.243 10.4034 111.366 11.1847ZM113.993 21V6.45455H123.112V8.34375H116.187V12.7756H122.636V14.6577H116.187V19.1108H123.197V21H113.993ZM126.043 21V6.45455H131.228C132.355 6.45455 133.29 6.64867 134.033 7.03693C134.781 7.42519 135.34 7.96259 135.71 8.64915C136.079 9.33097 136.263 10.1193 136.263 11.0142C136.263 11.9044 136.076 12.688 135.702 13.3651C135.333 14.0374 134.774 14.5606 134.026 14.9347C133.283 15.3087 132.348 15.4957 131.221 15.4957H127.293V13.6065H131.022C131.732 13.6065 132.31 13.5047 132.755 13.3011C133.205 13.0975 133.534 12.8016 133.742 12.4134C133.951 12.0251 134.055 11.5587 134.055 11.0142C134.055 10.465 133.948 9.98911 133.735 9.58665C133.527 9.18419 133.198 8.87642 132.748 8.66335C132.303 8.44555 131.718 8.33665 130.994 8.33665H128.238V21H126.043ZM133.224 14.4375L136.817 21H134.317L130.795 14.4375H133.224ZM138.217 8.34375V6.45455H149.474V8.34375H144.935V21H142.748V8.34375H138.217ZM151.471 21H149.142L154.376 6.45455H156.912L162.146 21H159.816L155.704 9.09659H155.591L151.471 21ZM151.862 15.304H159.419V17.1506H151.862V15.304ZM166.441 6.45455V21H164.246V6.45455H166.441ZM181.377 6.45455V21H179.36L171.967 10.3324H171.832V21H169.637V6.45455H171.668L179.069 17.1364H179.204V6.45455H181.377ZM183.861 8.34375V6.45455H195.118V8.34375H190.58V21H188.392V8.34375H183.861ZM196.484 6.45455H198.977L202.776 13.0668H202.933L206.732 6.45455H209.225L203.948 15.2898V21H201.761V15.2898L196.484 6.45455Z" fill="white"/>
<path d="M1.22159 21V19.5369L8.87074 8.34375H1.15767V6.45455H11.5554V7.91761L3.90625 19.1108H11.6193V21H1.22159ZM14.3714 21V6.45455H23.4908V8.34375H16.5661V12.7756H23.0149V14.6577H16.5661V19.1108H23.576V21H14.3714ZM26.4222 21V6.45455H31.6069C32.7338 6.45455 33.6689 6.64867 34.4123 7.03693C35.1604 7.42519 35.7191 7.96259 36.0884 8.64915C36.4577 9.33097 36.6424 10.1193 36.6424 11.0142C36.6424 11.9044 36.4554 12.688 36.0813 13.3651C35.712 14.0374 35.1533 14.5606 34.4052 14.9347C33.6618 15.3087 32.7267 15.4957 31.5998 15.4957H27.6722V13.6065H31.4009C32.1112 13.6065 32.6888 13.5047 33.1339 13.3011C33.5837 13.0975 33.9128 12.8016 34.1211 12.4134C34.3294 12.0251 34.4336 11.5587 34.4336 11.0142C34.4336 10.465 34.3271 9.98911 34.114 9.58665C33.9057 9.18419 33.5766 8.87642 33.1268 8.66335C32.6817 8.44555 32.0969 8.33665 31.3725 8.33665H28.6168V21H26.4222ZM33.6026 14.4375L37.1964 21H34.6964L31.1737 14.4375H33.6026Z" fill="white"/>
</svg>
